<svg xmlns="http://www.w3.org/2000/svg" viewBox="0 0 379.77 87.38"><defs><style>.cls-1{fill:#75f;}.cls-2{fill:#ffc448;}.cls-3{fill:#3a3a3a;}</style></defs><g id="Layer_2" data-name="Layer 2"><g id="Layer_1-2" data-name="Layer 1"><path class="cls-1" d="M31.86,0A31.85,31.85,0,0,0,0,31.86c0,.51,0,1,.05,1.51C0,33.52,0,60,0,60A27.38,27.38,0,0,0,27.39,87.38h0a5.33,5.33,0,0,0,5.33-5.33V33.82a4.58,4.58,0,0,0-.09-.83,3.58,3.58,0,0,0-.09-.45h0a5.31,5.31,0,0,0-5.15-4.05H15.11c-2.28,0-2.42-2.32-2-3.42A20,20,0,1,1,41,49.62,2.08,2.08,0,0,0,40,51.56v9.85c0,1,.68,1.06,1,1A31.86,31.86,0,0,0,31.86,0Z"/><circle class="cls-2" cx="31.86" cy="31.86" r="13.71"/><path class="cls-3" d="M86.81,69.54V86.1a10.49,10.49,0,0,1-1.68.44,12.61,12.61,0,0,1-2.32.2,5.51,5.51,0,0,1-3.56-.92,3.85,3.85,0,0,1-1.08-3.08V41.46a2.87,2.87,0,0,1,.76-2.12,5,5,0,0,1,2.12-1.16A25.31,25.31,0,0,1,87,37q3.44-.31,6.48-.32,10.39,0,15.4,4.4t5,11.92q0,7.53-5,12T93.93,69.54Zm6.56-7q5.52,0,8.68-2.4t3.16-7.2c0-3.2-1-5.54-3-7s-4.87-2.24-8.6-2.24c-1.23,0-2.44.06-3.64.16s-2.28.24-3.24.4V62.58Z"/><path class="cls-3" d="M157.21,67.54a23.54,23.54,0,0,1-1.36,8.24,17.79,17.79,0,0,1-3.8,6.24,16.48,16.48,0,0,1-6,4,22.65,22.65,0,0,1-15.68,0,16.48,16.48,0,0,1-6-4,17.79,17.79,0,0,1-3.8-6.24,23.54,23.54,0,0,1-1.36-8.24,23.58,23.58,0,0,1,1.36-8.24,17.76,17.76,0,0,1,3.84-6.24,17.08,17.08,0,0,1,6-4,22.21,22.21,0,0,1,15.52,0,16.77,16.77,0,0,1,6,4,18.32,18.32,0,0,1,3.84,6.24A23.24,23.24,0,0,1,157.21,67.54Zm-19-13.12a9.29,9.29,0,0,0-7.6,3.44q-2.81,3.45-2.8,9.68t2.72,9.64a10.37,10.37,0,0,0,15.36,0q2.72-3.39,2.72-9.64t-2.76-9.64A9.21,9.21,0,0,0,138.25,54.42Z"/><path class="cls-3" d="M174.57,86.1a7.83,7.83,0,0,1-1.56.44,11.53,11.53,0,0,1-2.2.2,5.51,5.51,0,0,1-3.44-.88,3.52,3.52,0,0,1-1.12-3V56.66a5.93,5.93,0,0,1,.8-3.24,8.35,8.35,0,0,1,2.56-2.36,22.07,22.07,0,0,1,5.92-2.4,30.7,30.7,0,0,1,7.92-1c4.69,0,7,1.34,7,4a5.09,5.09,0,0,1-.32,1.8,7.84,7.84,0,0,1-.72,1.48c-.53-.1-1.2-.21-2-.32a20.56,20.56,0,0,0-2.56-.16,23.58,23.58,0,0,0-5.84.68,19,19,0,0,0-4.48,1.72Z"/><path class="cls-3" d="M207.53,79.38a8,8,0,0,0,4.72,1.2,11.14,11.14,0,0,0,2.88-.4,13,13,0,0,0,2.64-1,8.37,8.37,0,0,1,1,1.44A4,4,0,0,1,217.09,86q-2.11,1.37-6.44,1.36-6,0-9.56-2.68t-3.56-8.84V38.5c.37-.1.91-.24,1.6-.4a9.93,9.93,0,0,1,2.24-.24,5.39,5.39,0,0,1,3.4.88,3.63,3.63,0,0,1,1.08,3v7.92h12.4a6.35,6.35,0,0,1,.88,3.2c0,2.3-1,3.44-3,3.44H205.85v19Q205.85,78.18,207.53,79.38Z"/><path class="cls-3" d="M236,51.14h15.12a5.92,5.92,0,0,1,.6,1.32,6.43,6.43,0,0,1,.28,2c0,2.24-1,3.36-3,3.36H236.25V86.1a8,8,0,0,1-1.56.44,11.53,11.53,0,0,1-2.2.2,5.49,5.49,0,0,1-3.44-.88,3.52,3.52,0,0,1-1.12-3V46.42A16.68,16.68,0,0,1,229,40.1a10.87,10.87,0,0,1,3.08-4.32,12.83,12.83,0,0,1,4.84-2.48,23.2,23.2,0,0,1,6.28-.8,18,18,0,0,1,7.6,1.28q2.64,1.29,2.64,3.6a4.2,4.2,0,0,1-.44,2,6,6,0,0,1-1.08,1.48,24,24,0,0,0-3.52-1.12,17.44,17.44,0,0,0-4.08-.48q-4.49,0-6.4,1.76T236,46.74Z"/><path class="cls-3" d="M294.09,67.54a23.77,23.77,0,0,1-1.36,8.24,17.94,17.94,0,0,1-3.8,6.24,16.56,16.56,0,0,1-6,4,22.65,22.65,0,0,1-15.68,0,16.39,16.39,0,0,1-6-4,17.64,17.64,0,0,1-3.8-6.24,23.54,23.54,0,0,1-1.36-8.24,23.58,23.58,0,0,1,1.36-8.24,17.47,17.47,0,0,1,3.84-6.24,17.08,17.08,0,0,1,6-4,22.21,22.21,0,0,1,15.52,0,17,17,0,0,1,6,4,18.32,18.32,0,0,1,3.84,6.24A23.46,23.46,0,0,1,294.09,67.54Zm-19-13.12a9.28,9.28,0,0,0-7.6,3.44q-2.8,3.45-2.8,9.68t2.72,9.64a10.37,10.37,0,0,0,15.36,0q2.71-3.39,2.72-9.64t-2.76-9.64A9.21,9.21,0,0,0,275.13,54.42Z"/><path class="cls-3" d="M308.25,86.74a5.49,5.49,0,0,1-3.44-.88,3.52,3.52,0,0,1-1.12-3V34.34c.37-.1.9-.24,1.6-.4a9.93,9.93,0,0,1,2.24-.24,5.6,5.6,0,0,1,3.44.88,3.58,3.58,0,0,1,1.12,3V86.1a10.77,10.77,0,0,1-1.64.44A11.53,11.53,0,0,1,308.25,86.74Z"/><path class="cls-3" d="M323.13,37.3a4.68,4.68,0,0,1,1.44-3.48,5.06,5.06,0,0,1,3.68-1.4,4.88,4.88,0,1,1,0,9.76,5,5,0,0,1-3.68-1.4A4.65,4.65,0,0,1,323.13,37.3Zm9.28,48.8a8.25,8.25,0,0,1-1.56.44,12,12,0,0,1-2.28.2,5.49,5.49,0,0,1-3.44-.88,3.52,3.52,0,0,1-1.12-3V49.06l1.64-.4a9.73,9.73,0,0,1,2.28-.24,5.41,5.41,0,0,1,3.4.88,3.73,3.73,0,0,1,1.08,3Z"/><path class="cls-3" d="M379.77,67.54a23.77,23.77,0,0,1-1.36,8.24,17.94,17.94,0,0,1-3.8,6.24,16.56,16.56,0,0,1-6,4A22.65,22.65,0,0,1,353,86a16.39,16.39,0,0,1-6-4,17.64,17.64,0,0,1-3.8-6.24,23.54,23.54,0,0,1-1.36-8.24,23.58,23.58,0,0,1,1.36-8.24,17.47,17.47,0,0,1,3.84-6.24,17.08,17.08,0,0,1,6-4,22.21,22.21,0,0,1,15.52,0,17,17,0,0,1,6,4,18.32,18.32,0,0,1,3.84,6.24A23.46,23.46,0,0,1,379.77,67.54Zm-19-13.12a9.28,9.28,0,0,0-7.6,3.44q-2.81,3.45-2.8,9.68t2.72,9.64a10.37,10.37,0,0,0,15.36,0q2.72-3.39,2.72-9.64t-2.76-9.64A9.21,9.21,0,0,0,360.81,54.42Z"/></g></g></svg>